<?xml version="1.0" encoding="utf-8"?>
<!-- Generator: Adobe Illustrator 16.0.0, SVG Export Plug-In . SVG Version: 6.00 Build 0)  -->
<!DOCTYPE svg PUBLIC "-//W3C//DTD SVG 1.1//EN" "http://www.w3.org/Graphics/SVG/1.1/DTD/svg11.dtd">
<svg version="1.1" id="Layer_1" xmlns="http://www.w3.org/2000/svg" xmlns:xlink="http://www.w3.org/1999/xlink" x="0px" y="0px"
	 width="224.503px" height="61.229px" viewBox="0 0 224.503 61.229" enable-background="new 0 0 224.503 61.229"
	 xml:space="preserve">
<g>
	<defs>
		<rect id="SVGID_1_" width="224.503" height="61.229"/>
	</defs>
	<clipPath id="SVGID_2_">
		<use xlink:href="#SVGID_1_"  overflow="visible"/>
	</clipPath>
	<g clip-path="url(#SVGID_2_)">
		<defs>
			<rect id="SVGID_3_" y="0" width="224.503" height="61.228"/>
		</defs>
		<clipPath id="SVGID_4_">
			<use xlink:href="#SVGID_3_"  overflow="visible"/>
		</clipPath>
		<g opacity="0" clip-path="url(#SVGID_4_)">
			<g>
				<defs>
					<rect id="SVGID_5_" width="224.503" height="61.229"/>
				</defs>
				<clipPath id="SVGID_6_">
					<use xlink:href="#SVGID_5_"  overflow="visible"/>
				</clipPath>
				<rect y="0" clip-path="url(#SVGID_6_)" fill="#FFFFFF" width="224.503" height="61.228"/>
			</g>
		</g>
	</g>
	<polygon clip-path="url(#SVGID_2_)" fill="#C72127" points="122.478,20.41 122.478,12.772 127.618,12.772 127.618,14.326 
		124.259,14.326 124.259,15.771 127.435,15.771 127.435,17.249 124.259,17.249 124.259,18.834 127.812,18.834 127.812,20.41 	"/>
	<rect x="129.309" y="12.772" clip-path="url(#SVGID_2_)" fill="#C72127" width="1.858" height="7.637"/>
	<polygon clip-path="url(#SVGID_2_)" fill="#C72127" points="137.802,20.41 134.725,15.416 134.692,15.416 134.735,20.41 
		132.942,20.41 132.942,12.772 135.048,12.772 138.115,17.756 138.148,17.756 138.104,12.772 139.897,12.772 139.897,20.41 	"/>
	<g clip-path="url(#SVGID_2_)">
		<defs>
			<rect id="SVGID_7_" y="0" width="224.503" height="61.228"/>
		</defs>
		<clipPath id="SVGID_8_">
			<use xlink:href="#SVGID_7_"  overflow="visible"/>
		</clipPath>
		<path clip-path="url(#SVGID_8_)" fill="#C72127" d="M148.813,16.569c0,0.669-0.124,1.246-0.372,1.731
			c-0.249,0.486-0.576,0.885-0.982,1.198c-0.407,0.312-0.866,0.543-1.377,0.69c-0.512,0.147-1.03,0.221-1.556,0.221h-2.851v-7.637
			h2.764c0.54,0,1.073,0.063,1.6,0.189c0.524,0.126,0.992,0.334,1.403,0.625c0.41,0.292,0.741,0.682,0.993,1.171
			C148.688,15.247,148.813,15.851,148.813,16.569 M146.892,16.569c0-0.432-0.07-0.789-0.211-1.073
			c-0.14-0.284-0.327-0.511-0.562-0.68c-0.233-0.169-0.501-0.289-0.799-0.361c-0.299-0.072-0.606-0.108-0.924-0.108h-0.918v4.465
			h0.875c0.331,0,0.65-0.037,0.956-0.113c0.306-0.075,0.576-0.199,0.81-0.372c0.234-0.172,0.422-0.402,0.562-0.69
			C146.821,17.35,146.892,16.994,146.892,16.569"/>
		<polygon clip-path="url(#SVGID_8_)" fill="#C72127" points="155.023,20.41 155.023,17.217 152.043,17.217 152.043,20.41 
			150.195,20.41 150.195,12.772 152.043,12.772 152.043,15.664 155.023,15.664 155.023,12.772 156.871,12.772 156.871,20.41 		"/>
		<path clip-path="url(#SVGID_8_)" fill="#C72127" d="M166.607,16.559c0,0.604-0.104,1.156-0.313,1.656s-0.497,0.928-0.868,1.284
			s-0.812,0.631-1.323,0.825c-0.511,0.194-1.066,0.291-1.663,0.291c-0.598,0-1.151-0.097-1.658-0.291
			c-0.508-0.194-0.947-0.469-1.318-0.825c-0.37-0.356-0.66-0.784-0.868-1.284c-0.209-0.5-0.313-1.052-0.313-1.656
			c0-0.611,0.104-1.163,0.313-1.656c0.208-0.492,0.498-0.911,0.868-1.257c0.371-0.345,0.811-0.611,1.318-0.798
			c0.507-0.187,1.061-0.28,1.658-0.28c0.597,0,1.152,0.093,1.663,0.28s0.952,0.453,1.323,0.798c0.371,0.346,0.659,0.765,0.868,1.257
			C166.503,15.396,166.607,15.948,166.607,16.559 M164.632,16.559c0-0.331-0.055-0.64-0.162-0.928
			c-0.108-0.287-0.259-0.534-0.448-0.738c-0.191-0.205-0.421-0.367-0.691-0.486c-0.27-0.119-0.566-0.178-0.891-0.178
			s-0.62,0.059-0.886,0.178c-0.268,0.119-0.497,0.281-0.691,0.486c-0.195,0.204-0.344,0.451-0.448,0.738
			c-0.104,0.288-0.156,0.597-0.156,0.928c0,0.345,0.054,0.663,0.161,0.955c0.108,0.291,0.258,0.541,0.448,0.749
			c0.191,0.209,0.419,0.373,0.687,0.491c0.266,0.119,0.562,0.178,0.886,0.178s0.619-0.059,0.885-0.178
			c0.268-0.118,0.497-0.282,0.691-0.491c0.194-0.208,0.346-0.458,0.454-0.749C164.577,17.222,164.632,16.903,164.632,16.559"/>
		<polygon clip-path="url(#SVGID_8_)" fill="#C72127" points="171.526,20.41 169.68,20.41 166.785,12.772 168.858,12.772 
			170.63,18.188 170.673,18.188 172.434,12.772 174.475,12.772 		"/>
		<polygon clip-path="url(#SVGID_8_)" fill="#C72127" points="175.355,20.41 175.355,12.772 180.497,12.772 180.497,14.326 
			177.138,14.326 177.138,15.771 180.312,15.771 180.312,17.249 177.138,17.249 177.138,18.834 180.69,18.834 180.69,20.41 		"/>
		<polygon clip-path="url(#SVGID_8_)" fill="#C72127" points="187.038,20.41 183.96,15.416 183.928,15.416 183.971,20.41 
			182.178,20.41 182.178,12.772 184.284,12.772 187.351,17.756 187.384,17.756 187.34,12.772 189.133,12.772 189.133,20.41 		"/>
		<polygon clip-path="url(#SVGID_8_)" fill="#C72127" points="126.484,39.859 126.484,45.921 124.637,45.921 124.637,39.859 
			122.477,39.859 122.477,38.284 128.644,38.284 128.644,39.859 		"/>
		<polygon clip-path="url(#SVGID_8_)" fill="#C72127" points="129.636,45.922 129.636,38.284 134.776,38.284 134.776,39.838 
			131.417,39.838 131.417,41.282 134.592,41.282 134.592,42.761 131.417,42.761 131.417,44.347 134.971,44.347 134.971,45.922 		"/>
		<path clip-path="url(#SVGID_8_)" fill="#C72127" d="M141.804,45.787c-0.497,0.226-1.069,0.34-1.717,0.34
			c-0.592,0-1.137-0.098-1.637-0.291c-0.501-0.195-0.935-0.47-1.302-0.826c-0.367-0.355-0.655-0.782-0.864-1.278
			c-0.209-0.495-0.312-1.043-0.312-1.64c0-0.611,0.105-1.165,0.319-1.661c0.212-0.496,0.505-0.919,0.88-1.267
			c0.374-0.35,0.812-0.617,1.316-0.804c0.504-0.188,1.048-0.28,1.631-0.28c0.54,0,1.071,0.095,1.594,0.285
			c0.521,0.19,0.944,0.47,1.269,0.836l-1.253,1.252c-0.172-0.238-0.399-0.414-0.68-0.529c-0.281-0.115-0.569-0.173-0.864-0.173
			c-0.324,0-0.621,0.06-0.891,0.179c-0.271,0.118-0.502,0.282-0.697,0.49c-0.194,0.209-0.345,0.455-0.453,0.739
			s-0.162,0.595-0.162,0.933c0,0.345,0.054,0.662,0.162,0.949c0.108,0.288,0.257,0.534,0.448,0.739
			c0.19,0.206,0.419,0.365,0.686,0.48s0.559,0.172,0.875,0.172c0.367,0,0.688-0.071,0.961-0.216c0.273-0.144,0.493-0.33,0.659-0.561
			l1.285,1.208C142.718,45.253,142.301,45.56,141.804,45.787"/>
		<polygon clip-path="url(#SVGID_8_)" fill="#C72127" points="148.85,45.922 148.85,42.729 145.868,42.729 145.868,45.922 
			144.021,45.922 144.021,38.284 145.868,38.284 145.868,41.176 148.85,41.176 148.85,38.284 150.696,38.284 150.696,45.922 		"/>
		<polygon clip-path="url(#SVGID_8_)" fill="#C72127" points="157.34,45.922 154.262,40.928 154.229,40.928 154.272,45.922 
			152.479,45.922 152.479,38.284 154.585,38.284 157.652,43.268 157.686,43.268 157.642,38.284 159.435,38.284 159.435,45.922 		"/>
		<path clip-path="url(#SVGID_8_)" fill="#C72127" d="M169.165,42.07c0,0.604-0.104,1.156-0.313,1.656s-0.498,0.928-0.868,1.284
			c-0.371,0.355-0.812,0.631-1.323,0.825c-0.511,0.193-1.066,0.291-1.663,0.291c-0.598,0-1.151-0.098-1.658-0.291
			c-0.508-0.194-0.947-0.47-1.318-0.825c-0.37-0.356-0.66-0.784-0.868-1.284c-0.209-0.5-0.313-1.052-0.313-1.656
			c0-0.61,0.104-1.163,0.313-1.655c0.208-0.492,0.498-0.911,0.868-1.258c0.371-0.345,0.811-0.61,1.318-0.798
			c0.507-0.187,1.061-0.279,1.658-0.279c0.597,0,1.152,0.093,1.663,0.279c0.511,0.188,0.952,0.453,1.323,0.798
			c0.37,0.347,0.659,0.766,0.868,1.258S169.165,41.46,169.165,42.07 M167.189,42.07c0-0.331-0.055-0.64-0.162-0.928
			c-0.108-0.287-0.259-0.534-0.448-0.738c-0.191-0.205-0.421-0.366-0.691-0.485c-0.27-0.119-0.566-0.179-0.891-0.179
			s-0.62,0.06-0.886,0.179c-0.268,0.119-0.497,0.28-0.691,0.485c-0.195,0.204-0.344,0.451-0.448,0.738
			c-0.104,0.288-0.156,0.597-0.156,0.928c0,0.346,0.054,0.663,0.161,0.955c0.108,0.291,0.258,0.541,0.448,0.749
			c0.191,0.209,0.419,0.373,0.687,0.491c0.266,0.119,0.562,0.178,0.886,0.178s0.619-0.059,0.885-0.178
			c0.268-0.118,0.497-0.282,0.691-0.491c0.194-0.208,0.346-0.458,0.454-0.749C167.135,42.733,167.189,42.416,167.189,42.07"/>
		<polygon clip-path="url(#SVGID_8_)" fill="#C72127" points="170.555,45.922 170.555,38.284 172.412,38.284 172.412,44.314 
			175.371,44.314 175.371,45.922 		"/>
		<path clip-path="url(#SVGID_8_)" fill="#C72127" d="M184.247,42.07c0,0.604-0.104,1.156-0.312,1.656
			c-0.21,0.5-0.498,0.928-0.869,1.284c-0.371,0.355-0.812,0.631-1.323,0.825c-0.511,0.193-1.066,0.291-1.663,0.291
			c-0.598,0-1.151-0.098-1.658-0.291c-0.508-0.194-0.947-0.47-1.317-0.825c-0.371-0.356-0.661-0.784-0.869-1.284
			c-0.209-0.5-0.313-1.052-0.313-1.656c0-0.61,0.104-1.163,0.313-1.655c0.208-0.492,0.498-0.911,0.869-1.258
			c0.37-0.345,0.81-0.61,1.317-0.798c0.507-0.187,1.061-0.279,1.658-0.279c0.597,0,1.152,0.093,1.663,0.279
			c0.511,0.188,0.952,0.453,1.323,0.798c0.371,0.347,0.659,0.766,0.869,1.258C184.144,40.907,184.247,41.46,184.247,42.07
			 M182.271,42.07c0-0.331-0.055-0.64-0.162-0.928c-0.108-0.287-0.258-0.534-0.448-0.738c-0.191-0.205-0.421-0.366-0.691-0.485
			c-0.27-0.119-0.566-0.179-0.891-0.179s-0.62,0.06-0.886,0.179c-0.268,0.119-0.497,0.28-0.691,0.485
			c-0.195,0.204-0.344,0.451-0.448,0.738c-0.104,0.288-0.156,0.597-0.156,0.928c0,0.346,0.054,0.663,0.162,0.955
			c0.107,0.291,0.257,0.541,0.447,0.749c0.191,0.209,0.419,0.373,0.687,0.491c0.266,0.119,0.562,0.178,0.886,0.178
			s0.619-0.059,0.885-0.178c0.268-0.118,0.497-0.282,0.691-0.491c0.194-0.208,0.346-0.458,0.454-0.749
			C182.217,42.733,182.271,42.416,182.271,42.07"/>
		<path clip-path="url(#SVGID_8_)" fill="#C72127" d="M191.086,45.933c-0.5,0.122-1.046,0.184-1.636,0.184
			c-0.612,0-1.177-0.098-1.69-0.292c-0.515-0.194-0.958-0.467-1.329-0.82c-0.371-0.352-0.66-0.773-0.869-1.267
			s-0.312-1.041-0.312-1.645c0-0.611,0.105-1.165,0.317-1.661c0.214-0.496,0.507-0.919,0.881-1.269
			c0.375-0.348,0.813-0.616,1.317-0.803c0.504-0.188,1.048-0.281,1.631-0.281c0.605,0,1.166,0.092,1.686,0.275
			c0.518,0.183,0.938,0.43,1.263,0.739l-1.166,1.326c-0.18-0.209-0.418-0.379-0.713-0.512s-0.63-0.2-1.004-0.2
			c-0.324,0-0.623,0.06-0.897,0.179c-0.272,0.118-0.511,0.283-0.713,0.495c-0.2,0.213-0.357,0.465-0.469,0.756
			c-0.112,0.291-0.168,0.609-0.168,0.955c0,0.352,0.051,0.676,0.151,0.971s0.251,0.548,0.448,0.76
			c0.198,0.212,0.442,0.378,0.734,0.496c0.292,0.119,0.625,0.178,0.999,0.178c0.216,0,0.421-0.016,0.616-0.048
			c0.193-0.032,0.374-0.085,0.54-0.157v-1.391h-1.458v-1.489h3.152v4.045C192.023,45.652,191.586,45.811,191.086,45.933"/>
		<polygon clip-path="url(#SVGID_8_)" fill="#C72127" points="197.707,42.686 197.707,45.922 195.86,45.922 195.86,42.686 
			192.987,38.284 195.224,38.284 196.854,41.11 198.485,38.284 200.646,38.284 		"/>
		<path clip-path="url(#SVGID_8_)" fill="#C72127" d="M128.801,31.542c-0.155,0.378-0.376,0.701-0.664,0.971
			c-0.288,0.271-0.636,0.48-1.042,0.631c-0.407,0.151-0.859,0.227-1.356,0.227c-0.504,0-0.958-0.075-1.36-0.227
			c-0.403-0.15-0.745-0.36-1.026-0.631c-0.281-0.27-0.496-0.593-0.648-0.971c-0.15-0.377-0.227-0.796-0.227-1.257v-4.757h1.837
			v4.606c0,0.209,0.027,0.407,0.081,0.594s0.136,0.354,0.248,0.501c0.111,0.148,0.259,0.264,0.443,0.351
			c0.183,0.086,0.404,0.129,0.663,0.129c0.26,0,0.481-0.043,0.664-0.129c0.185-0.087,0.333-0.203,0.448-0.351
			c0.115-0.147,0.198-0.314,0.249-0.501c0.05-0.187,0.075-0.385,0.075-0.594v-4.606h1.847v4.757
			C129.032,30.746,128.955,31.165,128.801,31.542"/>
		<polygon clip-path="url(#SVGID_8_)" fill="#C72127" points="135.607,33.166 132.529,28.171 132.498,28.171 132.541,33.166 
			130.748,33.166 130.748,25.529 132.854,25.529 135.921,30.512 135.953,30.512 135.909,25.529 137.702,25.529 137.702,33.166 		"/>
		<rect x="139.478" y="25.528" clip-path="url(#SVGID_8_)" fill="#C72127" width="1.858" height="7.637"/>
		<polygon clip-path="url(#SVGID_8_)" fill="#C72127" points="146.958,33.166 145.111,33.166 142.217,25.529 144.29,25.529 
			146.062,30.944 146.105,30.944 147.865,25.529 149.906,25.529 		"/>
		<polygon clip-path="url(#SVGID_8_)" fill="#C72127" points="150.788,33.166 150.788,25.529 155.929,25.529 155.929,27.082 
			152.57,27.082 152.57,28.527 155.745,28.527 155.745,30.004 152.57,30.004 152.57,31.591 156.123,31.591 156.123,33.166 		"/>
		<path clip-path="url(#SVGID_8_)" fill="#C72127" d="M161.704,33.165l-1.66-3.031h-0.63v3.031h-1.805v-7.637h2.916
			c0.368,0,0.727,0.038,1.075,0.113c0.349,0.076,0.662,0.204,0.94,0.383c0.276,0.18,0.498,0.417,0.664,0.712
			c0.165,0.295,0.248,0.662,0.248,1.1c0,0.518-0.141,0.953-0.422,1.306c-0.28,0.352-0.67,0.604-1.166,0.755l1.998,3.268H161.704z
			 M161.628,27.869c0-0.18-0.038-0.325-0.114-0.437c-0.076-0.111-0.174-0.198-0.293-0.259c-0.12-0.061-0.253-0.102-0.402-0.124
			c-0.147-0.021-0.291-0.032-0.428-0.032h-0.988v1.78h0.879c0.152,0,0.309-0.013,0.468-0.038c0.158-0.025,0.304-0.07,0.434-0.135
			c0.13-0.065,0.237-0.158,0.32-0.28C161.586,28.221,161.628,28.063,161.628,27.869"/>
		<path clip-path="url(#SVGID_8_)" fill="#C72127" d="M169.025,27.513c-0.157-0.201-0.364-0.361-0.62-0.48
			c-0.257-0.119-0.503-0.178-0.74-0.178c-0.122,0-0.246,0.011-0.372,0.032c-0.126,0.022-0.24,0.064-0.341,0.124
			c-0.101,0.062-0.186,0.141-0.253,0.238c-0.069,0.097-0.104,0.221-0.104,0.372c0,0.129,0.027,0.237,0.081,0.324
			c0.054,0.086,0.133,0.161,0.238,0.226c0.104,0.065,0.228,0.124,0.372,0.178c0.144,0.054,0.306,0.11,0.485,0.167
			c0.26,0.086,0.529,0.182,0.811,0.286c0.281,0.105,0.537,0.243,0.767,0.415c0.23,0.173,0.421,0.387,0.572,0.642
			c0.152,0.256,0.227,0.574,0.227,0.955c0,0.439-0.081,0.818-0.242,1.138c-0.162,0.32-0.381,0.584-0.653,0.793
			c-0.274,0.209-0.587,0.363-0.94,0.464c-0.353,0.101-0.716,0.151-1.091,0.151c-0.547,0-1.076-0.097-1.587-0.286
			c-0.512-0.191-0.936-0.462-1.275-0.815l1.21-1.229c0.188,0.23,0.435,0.422,0.74,0.577c0.307,0.155,0.61,0.232,0.912,0.232
			c0.137,0,0.271-0.015,0.4-0.043c0.13-0.029,0.243-0.076,0.34-0.141c0.097-0.064,0.175-0.151,0.231-0.259
			c0.059-0.107,0.088-0.237,0.088-0.388c0-0.144-0.036-0.266-0.108-0.367c-0.072-0.1-0.175-0.192-0.308-0.275
			c-0.134-0.082-0.3-0.158-0.497-0.226c-0.198-0.069-0.424-0.142-0.676-0.221c-0.244-0.079-0.483-0.173-0.718-0.281
			c-0.233-0.108-0.442-0.246-0.626-0.415s-0.332-0.374-0.442-0.615c-0.112-0.241-0.168-0.534-0.168-0.879
			c0-0.424,0.087-0.788,0.26-1.09c0.172-0.302,0.398-0.55,0.68-0.744c0.281-0.194,0.598-0.336,0.95-0.426
			c0.353-0.09,0.709-0.135,1.07-0.135c0.432,0,0.872,0.079,1.322,0.237c0.45,0.159,0.845,0.392,1.183,0.702L169.025,27.513z"/>
		<rect x="171.559" y="25.528" clip-path="url(#SVGID_8_)" fill="#C72127" width="1.858" height="7.637"/>
		<polygon clip-path="url(#SVGID_8_)" fill="#C72127" points="178.408,27.104 178.408,33.165 176.562,33.165 176.562,27.104 
			174.401,27.104 174.401,25.528 180.568,25.528 180.568,27.104 		"/>
		<polygon clip-path="url(#SVGID_8_)" fill="#C72127" points="185.797,29.929 185.797,33.165 183.949,33.165 183.949,29.929 
			181.077,25.528 183.312,25.528 184.943,28.354 186.574,25.528 188.734,25.528 		"/>
		<path clip-path="url(#SVGID_8_)" fill="#C72127" d="M200.408,29.314c0,0.604-0.104,1.156-0.312,1.656s-0.498,0.928-0.869,1.283
			c-0.371,0.356-0.812,0.632-1.323,0.825c-0.511,0.194-1.065,0.291-1.663,0.291s-1.15-0.097-1.657-0.291
			c-0.509-0.193-0.947-0.469-1.318-0.825c-0.371-0.355-0.661-0.783-0.869-1.283c-0.209-0.5-0.312-1.052-0.312-1.656
			c0-0.611,0.104-1.163,0.312-1.656c0.208-0.492,0.498-0.911,0.869-1.257c0.371-0.345,0.81-0.611,1.318-0.798
			c0.507-0.187,1.06-0.28,1.657-0.28s1.152,0.093,1.663,0.28c0.512,0.187,0.952,0.453,1.323,0.798
			c0.371,0.346,0.66,0.765,0.869,1.257C200.305,28.151,200.408,28.704,200.408,29.314 M198.433,29.314
			c0-0.331-0.054-0.64-0.162-0.928c-0.107-0.287-0.258-0.534-0.448-0.738c-0.19-0.205-0.421-0.367-0.69-0.486
			c-0.271-0.119-0.567-0.178-0.892-0.178c-0.323,0-0.619,0.059-0.886,0.178c-0.266,0.119-0.497,0.281-0.69,0.486
			c-0.195,0.204-0.345,0.451-0.448,0.738c-0.105,0.288-0.157,0.597-0.157,0.928c0,0.345,0.054,0.663,0.162,0.955
			c0.108,0.291,0.257,0.541,0.448,0.749c0.19,0.209,0.42,0.373,0.686,0.491c0.267,0.119,0.562,0.178,0.886,0.178
			c0.324,0,0.619-0.059,0.886-0.178c0.267-0.118,0.497-0.282,0.69-0.491c0.195-0.208,0.347-0.458,0.454-0.749
			C198.379,29.978,198.433,29.66,198.433,29.314"/>
		<polygon clip-path="url(#SVGID_8_)" fill="#C72127" points="203.623,27.104 203.623,28.678 206.582,28.678 206.582,30.199 
			203.623,30.199 203.623,33.165 201.798,33.165 201.798,25.528 206.831,25.528 206.831,27.104 		"/>
		<polygon clip-path="url(#SVGID_8_)" fill="#C72127" points="28.038,19.594 28.038,45.918 19.819,45.918 19.819,19.594 
			10.205,19.594 10.205,12.756 37.651,12.756 37.651,19.594 		"/>
		<path clip-path="url(#SVGID_8_)" fill="#C72127" d="M68.963,38.869c-0.689,1.639-1.675,3.044-2.956,4.215
			c-1.282,1.171-2.828,2.085-4.639,2.74s-3.821,0.983-6.032,0.983c-2.244,0-4.262-0.328-6.057-0.983s-3.316-1.569-4.566-2.74
			s-2.211-2.576-2.884-4.215c-0.673-1.641-1.01-3.458-1.01-5.457V12.756h8.172v20c0,0.906,0.12,1.765,0.361,2.576
			c0.24,0.812,0.608,1.539,1.105,2.179c0.496,0.64,1.154,1.147,1.971,1.522s1.802,0.562,2.956,0.562s2.139-0.187,2.956-0.562
			s1.482-0.883,1.995-1.522c0.512-0.64,0.881-1.366,1.105-2.179c0.224-0.812,0.337-1.67,0.337-2.576v-20h8.219v20.656
			C69.996,35.411,69.652,37.229,68.963,38.869"/>
		<polygon clip-path="url(#SVGID_8_)" fill="#C72127" points="75.082,51.023 91.746,10.205 85.794,10.205 69.13,51.023 		"/>
		<path clip-path="url(#SVGID_8_)" fill="#C72127" d="M99.84,21.974c-6.857,0-12.415,5.559-12.415,12.415
			c0,6.857,5.558,12.415,12.415,12.415c4.4,0,8.896-1.925,11.323-5.394l-5.631-2.296c-1.499,1.662-3.553,2.317-5.692,2.317
			c-3.156,0-5.827-2.075-6.722-4.937h18.956c0.117-0.685,0.181-1.388,0.181-2.106C112.255,27.533,106.697,21.974,99.84,21.974
			 M99.84,27.347c2.943,0,5.464,1.806,6.516,4.37H93.324C94.376,29.153,96.897,27.347,99.84,27.347"/>
	</g>
</g>
</svg>
